# xmcd
#
# Track frame offsets:
#	150
#	15231
#	31559
#	56433
#	92828
#	125831
#	152608
#	198685
#	226643
#	247416
#	282126
#
# Disc length: 4263 seconds
#
# Revision: 10
# Processed by: cddbd v1.5.2PL0 Copyright (c) Steve Scherf et al.
# Submitted via: EZCDAudioConverter 1.3.2.1
#
DISCID=8810a50b
DTITLE=Bonamassa, Joe - A New Day Yesterday Live
DYEAR=2001
DGENRE=Blues
TTITLE0=Jam Intro
TTITLE1=Cradle Rock
TTITLE2=Stepping Out+Rice Pudding
TTITLE3=A New Day Yesterday
TTITLE4=Miss You, Hate You
TTITLE5=Walk In My Shadows
TTITLE6=I Know Where I Belong
TTITLE7=Colour And Shape
TTITLE8=Trouble Waiting
TTITLE9=If Heartaches Were Nickels
TTITLE10=Don't Burn Down That Bridge
EXTD=
EXTT0=
EXTT1=
EXTT2=
EXTT3=
EXTT4=
EXTT5=
EXTT6=
EXTT7=
EXTT8=
EXTT9=
EXTT10=
PLAYORDER=
